<mxfile host="app.diagrams.net" modified="2021-12-13T12:21:53.602Z" agent="5.0 (Windows NT 10.0; Win64; x64) AppleWebKit/537.36 (KHTML, like Gecko) Chrome/100.0.4763.0 Safari/537.36" etag="uUmo4PyVv1J7u96X0wR1" version="15.9.4" type="github">
  <diagram id="naprRCDGPX3BPxph3yD_" name="Page-1">
    <mxGraphModel dx="1609" dy="685" grid="1" gridSize="10" guides="1" tooltips="1" connect="1" arrows="1" fold="1" page="1" pageScale="1" pageWidth="827" pageHeight="1169" math="0" shadow="0">
      <root>
        <mxCell id="0" />
        <mxCell id="1" parent="0" />
        <mxCell id="doQWV-HmhAqJ58ADDW9Z-3" style="edgeStyle=orthogonalEdgeStyle;rounded=0;orthogonalLoop=1;jettySize=auto;html=1;exitX=0.5;exitY=1;exitDx=0;exitDy=0;entryX=0.5;entryY=0;entryDx=0;entryDy=0;" edge="1" parent="1" source="doQWV-HmhAqJ58ADDW9Z-1" target="doQWV-HmhAqJ58ADDW9Z-2">
          <mxGeometry relative="1" as="geometry" />
        </mxCell>
        <mxCell id="doQWV-HmhAqJ58ADDW9Z-1" value="&lt;font style=&quot;vertical-align: inherit&quot;&gt;&lt;font style=&quot;vertical-align: inherit&quot;&gt;RECEBIMENTO&lt;/font&gt;&lt;/font&gt;" style="ellipse;whiteSpace=wrap;html=1;" vertex="1" parent="1">
          <mxGeometry x="235" y="70" width="120" height="80" as="geometry" />
        </mxCell>
        <mxCell id="doQWV-HmhAqJ58ADDW9Z-7" style="edgeStyle=orthogonalEdgeStyle;rounded=0;orthogonalLoop=1;jettySize=auto;html=1;entryX=0.5;entryY=0;entryDx=0;entryDy=0;" edge="1" parent="1" source="doQWV-HmhAqJ58ADDW9Z-2" target="doQWV-HmhAqJ58ADDW9Z-6">
          <mxGeometry relative="1" as="geometry" />
        </mxCell>
        <mxCell id="doQWV-HmhAqJ58ADDW9Z-2" value="" style="rounded=0;whiteSpace=wrap;html=1;" vertex="1" parent="1">
          <mxGeometry x="230" y="170" width="130" height="50" as="geometry" />
        </mxCell>
        <mxCell id="doQWV-HmhAqJ58ADDW9Z-5" value="&lt;p class=&quot;MsoNormal&quot; style=&quot;margin-left: 36.0pt&quot;&gt;&lt;font style=&quot;vertical-align: inherit&quot;&gt;&lt;font style=&quot;vertical-align: inherit&quot;&gt;Leito de Código de Barras&lt;/font&gt;&lt;/font&gt;&lt;/p&gt;" style="text;html=1;strokeColor=none;fillColor=none;align=center;verticalAlign=middle;whiteSpace=wrap;rounded=0;" vertex="1" parent="1">
          <mxGeometry x="200" y="165" width="140" height="60" as="geometry" />
        </mxCell>
        <mxCell id="doQWV-HmhAqJ58ADDW9Z-11" style="edgeStyle=orthogonalEdgeStyle;rounded=0;orthogonalLoop=1;jettySize=auto;html=1;exitX=0;exitY=0.5;exitDx=0;exitDy=0;entryX=0.5;entryY=0;entryDx=0;entryDy=0;" edge="1" parent="1" source="doQWV-HmhAqJ58ADDW9Z-6" target="doQWV-HmhAqJ58ADDW9Z-9">
          <mxGeometry relative="1" as="geometry" />
        </mxCell>
        <mxCell id="doQWV-HmhAqJ58ADDW9Z-12" style="edgeStyle=orthogonalEdgeStyle;rounded=0;orthogonalLoop=1;jettySize=auto;html=1;exitX=1;exitY=0.5;exitDx=0;exitDy=0;entryX=0.558;entryY=0;entryDx=0;entryDy=0;entryPerimeter=0;" edge="1" parent="1" source="doQWV-HmhAqJ58ADDW9Z-6" target="doQWV-HmhAqJ58ADDW9Z-10">
          <mxGeometry relative="1" as="geometry" />
        </mxCell>
        <mxCell id="doQWV-HmhAqJ58ADDW9Z-6" value="" style="rhombus;whiteSpace=wrap;html=1;" vertex="1" parent="1">
          <mxGeometry x="255" y="250" width="80" height="80" as="geometry" />
        </mxCell>
        <mxCell id="doQWV-HmhAqJ58ADDW9Z-16" style="edgeStyle=orthogonalEdgeStyle;rounded=0;orthogonalLoop=1;jettySize=auto;html=1;exitX=0.5;exitY=1;exitDx=0;exitDy=0;" edge="1" parent="1" source="doQWV-HmhAqJ58ADDW9Z-9" target="doQWV-HmhAqJ58ADDW9Z-13">
          <mxGeometry relative="1" as="geometry">
            <mxPoint x="290" y="540" as="targetPoint" />
          </mxGeometry>
        </mxCell>
        <mxCell id="doQWV-HmhAqJ58ADDW9Z-9" value="&lt;font style=&quot;vertical-align: inherit&quot;&gt;&lt;font style=&quot;vertical-align: inherit&quot;&gt;Volume GM&lt;/font&gt;&lt;/font&gt;" style="rounded=0;whiteSpace=wrap;html=1;" vertex="1" parent="1">
          <mxGeometry x="80" y="330" width="120" height="60" as="geometry" />
        </mxCell>
        <mxCell id="doQWV-HmhAqJ58ADDW9Z-24" style="edgeStyle=orthogonalEdgeStyle;rounded=0;orthogonalLoop=1;jettySize=auto;html=1;exitX=0.5;exitY=1;exitDx=0;exitDy=0;entryX=0.5;entryY=0;entryDx=0;entryDy=0;" edge="1" parent="1" source="doQWV-HmhAqJ58ADDW9Z-10" target="doQWV-HmhAqJ58ADDW9Z-19">
          <mxGeometry relative="1" as="geometry" />
        </mxCell>
        <mxCell id="doQWV-HmhAqJ58ADDW9Z-10" value="&lt;font style=&quot;vertical-align: inherit&quot;&gt;&lt;font style=&quot;vertical-align: inherit&quot;&gt;&lt;font style=&quot;vertical-align: inherit&quot;&gt;&lt;font style=&quot;vertical-align: inherit&quot;&gt;Nota da Rede&lt;/font&gt;&lt;/font&gt;&lt;/font&gt;&lt;/font&gt;" style="rounded=0;whiteSpace=wrap;html=1;" vertex="1" parent="1">
          <mxGeometry x="405" y="330" width="120" height="60" as="geometry" />
        </mxCell>
        <mxCell id="doQWV-HmhAqJ58ADDW9Z-18" style="edgeStyle=orthogonalEdgeStyle;rounded=0;orthogonalLoop=1;jettySize=auto;html=1;exitX=0.5;exitY=1;exitDx=0;exitDy=0;entryX=0.5;entryY=0;entryDx=0;entryDy=0;" edge="1" parent="1" source="doQWV-HmhAqJ58ADDW9Z-13" target="doQWV-HmhAqJ58ADDW9Z-17">
          <mxGeometry relative="1" as="geometry" />
        </mxCell>
        <mxCell id="doQWV-HmhAqJ58ADDW9Z-13" value="Processamento dos&lt;br&gt;dados pelo leitor de código de barras na aplicação" style="shape=parallelogram;perimeter=parallelogramPerimeter;whiteSpace=wrap;html=1;fixedSize=1;" vertex="1" parent="1">
          <mxGeometry x="-17.5" y="440" width="315" height="80" as="geometry" />
        </mxCell>
        <mxCell id="doQWV-HmhAqJ58ADDW9Z-26" style="edgeStyle=orthogonalEdgeStyle;rounded=0;orthogonalLoop=1;jettySize=auto;html=1;exitX=0.5;exitY=1;exitDx=0;exitDy=0;entryX=0.5;entryY=0;entryDx=0;entryDy=0;" edge="1" parent="1" source="doQWV-HmhAqJ58ADDW9Z-17" target="doQWV-HmhAqJ58ADDW9Z-25">
          <mxGeometry relative="1" as="geometry" />
        </mxCell>
        <mxCell id="doQWV-HmhAqJ58ADDW9Z-17" value="Imprimiri etiqueta com os dados&amp;nbsp;&lt;span&gt;de locação, item, quantidade de item, descrição,número volume, &lt;br&gt;data e hora&amp;nbsp;&lt;/span&gt;&lt;br&gt;&lt;p class=&quot;MsoNormal&quot; style=&quot;margin-left: 36.0pt&quot;&gt;&lt;/p&gt;" style="shape=parallelogram;perimeter=parallelogramPerimeter;whiteSpace=wrap;html=1;fixedSize=1;" vertex="1" parent="1">
          <mxGeometry x="-27.5" y="570" width="335" height="85" as="geometry" />
        </mxCell>
        <mxCell id="doQWV-HmhAqJ58ADDW9Z-23" style="edgeStyle=orthogonalEdgeStyle;rounded=0;orthogonalLoop=1;jettySize=auto;html=1;entryX=0.47;entryY=0;entryDx=0;entryDy=0;entryPerimeter=0;" edge="1" parent="1" source="doQWV-HmhAqJ58ADDW9Z-19" target="doQWV-HmhAqJ58ADDW9Z-20">
          <mxGeometry relative="1" as="geometry" />
        </mxCell>
        <mxCell id="doQWV-HmhAqJ58ADDW9Z-19" value="Processamento dos&lt;br&gt;dados pelo leitor de código de barras na aplicação" style="shape=parallelogram;perimeter=parallelogramPerimeter;whiteSpace=wrap;html=1;fixedSize=1;" vertex="1" parent="1">
          <mxGeometry x="307.5" y="440" width="315" height="80" as="geometry" />
        </mxCell>
        <mxCell id="doQWV-HmhAqJ58ADDW9Z-27" style="edgeStyle=orthogonalEdgeStyle;rounded=0;orthogonalLoop=1;jettySize=auto;html=1;exitX=0.5;exitY=1;exitDx=0;exitDy=0;" edge="1" parent="1" source="doQWV-HmhAqJ58ADDW9Z-20">
          <mxGeometry relative="1" as="geometry">
            <mxPoint x="300" y="710" as="targetPoint" />
          </mxGeometry>
        </mxCell>
        <mxCell id="doQWV-HmhAqJ58ADDW9Z-20" value="Imprimiri etiqueta com os dados&amp;nbsp;&lt;span&gt;de locação, item, quantidade de item, descrição,&lt;/span&gt;&lt;span style=&quot;font-size: 10.0pt ; font-family: &amp;#34;arial&amp;#34; , sans-serif&quot;&gt;número nota fiscal&lt;/span&gt;&lt;span&gt;, &lt;br&gt;data e hora&amp;nbsp;&lt;/span&gt;&lt;br&gt;&lt;p class=&quot;MsoNormal&quot; style=&quot;margin-left: 36.0pt&quot;&gt;&lt;/p&gt;" style="shape=parallelogram;perimeter=parallelogramPerimeter;whiteSpace=wrap;html=1;fixedSize=1;" vertex="1" parent="1">
          <mxGeometry x="307.5" y="570" width="335" height="85" as="geometry" />
        </mxCell>
        <mxCell id="doQWV-HmhAqJ58ADDW9Z-25" value="Fim" style="ellipse;whiteSpace=wrap;html=1;aspect=fixed;" vertex="1" parent="1">
          <mxGeometry x="260" y="710" width="80" height="80" as="geometry" />
        </mxCell>
      </root>
    </mxGraphModel>
  </diagram>
</mxfile>
